<?xml version="1.0" standalone="no"?>
<!DOCTYPE svg PUBLIC "-//W3C//DTD SVG 20010904//EN"
 "http://www.w3.org/TR/2001/REC-SVG-20010904/DTD/svg10.dtd">
<svg version="1.0" xmlns="http://www.w3.org/2000/svg"
 width="500.000000pt" height="500.000000pt" viewBox="0 0 500.000000 500.000000"
 preserveAspectRatio="xMidYMid meet">
<metadata>
Created by potrace 1.14, written by Peter Selinger 2001-2017
</metadata>
<g transform="translate(0.000000,500.000000) scale(0.100000,-0.100000)"
fill="#000000" stroke="none">
<path d="M3076 4575 c-2 -7 0 -16 7 -19 9 -3 8 -8 -3 -18 -17 -14 -50 -79 -50
-97 0 -6 -7 -11 -15 -11 -17 0 -21 -45 -5 -55 21 -13 9 -23 -24 -20 -27 2 -39
-4 -68 -34 -34 -36 -68 -97 -68 -123 0 -25 -30 -58 -46 -51 -14 5 -16 -1 -12
-36 2 -29 0 -40 -8 -37 -13 5 -31 -11 -34 -29 -1 -5 -7 -9 -12 -7 -16 4 -36
-29 -30 -50 2 -10 7 -18 11 -18 4 0 7 -13 7 -30 0 -28 -17 -44 -42 -39 -24 4
-34 -3 -34 -26 0 -14 -4 -25 -10 -25 -5 0 -10 -5 -10 -11 0 -7 9 -9 24 -5 31
8 38 -2 20 -28 -8 -13 -12 -25 -9 -28 3 -3 -1 -11 -10 -18 -18 -15 -20 -47 -3
-52 8 -3 9 -17 1 -56 -8 -41 -7 -54 4 -63 11 -10 11 -14 -2 -29 -14 -15 -12
-19 16 -41 l31 -23 -21 -17 c-24 -20 -28 -34 -6 -26 20 8 29 -11 15 -28 -7 -8
-10 -24 -7 -35 3 -11 1 -22 -4 -25 -4 -3 -8 -18 -7 -33 0 -35 -7 -80 -15 -88
-3 -4 -2 -15 3 -24 7 -13 6 -20 -5 -24 -17 -6 -14 -31 11 -101 26 -75 106 -87
157 -25 37 44 59 93 47 100 -9 5 -9 10 -1 14 7 4 7 15 1 30 -5 13 -6 27 -2 30
3 4 7 21 7 40 1 18 5 37 8 44 4 6 3 14 -3 17 -8 5 -7 12 2 23 11 13 11 14 0 8
-11 -7 -12 1 -7 40 4 27 13 54 19 59 13 10 40 104 33 112 -3 2 1 27 9 55 7 28
11 55 9 59 -3 4 2 10 11 13 9 4 13 13 10 23 -7 23 2 37 39 54 27 13 30 19 26
54 -2 22 -4 49 -5 60 0 11 -4 22 -8 25 -8 7 -21 65 -21 100 0 25 9 71 20 100
4 8 7 17 7 20 1 3 10 18 20 33 10 15 16 30 12 34 -3 4 1 15 11 25 9 10 13 18
8 18 -4 0 -3 6 3 13 6 6 11 15 11 19 1 4 11 29 23 55 12 27 22 54 24 62 2 8 6
26 9 39 6 23 4 24 -22 17 l-28 -7 29 27 c21 19 25 29 17 39 -7 8 -7 16 0 23 5
5 7 16 4 24 -7 19 -62 22 -69 4z m-96 -690 c0 -12 -19 -12 -23 0 -4 9 -1 12 9
8 7 -3 14 -7 14 -8z"/>
<path d="M1616 3684 c-9 -8 -26 -17 -38 -19 -45 -9 -85 -98 -58 -130 7 -8 9
-15 6 -15 -4 0 -1 -7 6 -15 38 -45 98 -100 98 -88 0 11 146 -141 159 -165 7
-12 16 -20 21 -17 5 3 19 -8 31 -25 13 -16 29 -30 36 -30 7 0 13 -4 13 -10 0
-5 29 -39 65 -75 36 -35 65 -69 65 -75 0 -5 7 -10 15 -10 8 0 22 -11 32 -25
10 -14 45 -54 78 -90 33 -35 74 -81 90 -101 17 -21 40 -46 52 -57 12 -11 20
-24 17 -29 -3 -4 1 -8 9 -8 8 0 21 -10 30 -22 8 -13 25 -34 38 -48 14 -14 38
-43 54 -65 16 -22 35 -44 42 -48 7 -4 13 -19 13 -31 0 -17 5 -23 18 -22 10 0
16 -5 13 -14 -2 -8 -4 -22 -4 -30 0 -16 -398 -410 -414 -410 -13 0 -73 -70
-73 -84 0 -9 -5 -16 -11 -16 -6 0 -25 -11 -43 -25 -17 -15 -60 -49 -96 -78
-36 -29 -67 -55 -68 -60 -2 -4 -9 -13 -16 -20 -7 -6 -22 -34 -35 -60 -13 -26
-34 -55 -48 -64 -16 -11 -20 -19 -13 -23 6 -4 12 -27 14 -51 1 -24 5 -50 9
-56 5 -7 -2 -28 -17 -49 -28 -42 -26 -70 4 -52 10 7 17 15 14 19 -2 4 2 12 9
17 10 8 22 1 50 -27 20 -21 37 -46 37 -55 0 -9 3 -16 8 -17 4 0 18 -2 31 -5
13 -2 29 0 36 6 10 8 38 16 68 19 4 1 7 9 7 19 0 15 2 15 10 2 9 -13 13 -12
28 5 9 12 25 24 35 28 9 3 18 14 19 24 2 30 4 37 20 74 9 20 21 40 27 43 6 4
11 17 11 30 0 12 3 26 7 30 4 4 9 22 11 39 6 72 29 125 71 166 17 17 31 33 31
37 0 7 33 42 153 164 48 49 87 93 87 98 0 12 133 147 152 155 17 6 72 -15 63
-24 -2 -3 11 -22 30 -44 19 -21 35 -45 35 -52 0 -7 4 -13 8 -13 5 0 17 -16 28
-35 10 -19 22 -35 26 -35 5 0 8 -7 8 -15 0 -8 5 -15 10 -15 6 0 10 -6 10 -12
0 -7 14 -31 30 -52 17 -22 30 -45 30 -52 0 -7 7 -20 17 -29 13 -13 13 -19 4
-25 -9 -5 -10 -10 -2 -14 6 -4 11 -4 11 0 0 4 9 -1 20 -11 14 -13 17 -22 10
-29 -16 -16 -12 -26 9 -26 11 0 27 -10 35 -22 18 -25 21 -42 6 -33 -5 3 -11 3
-11 -2 -5 -32 -5 -53 0 -54 3 0 15 -3 26 -6 11 -2 28 -5 38 -6 10 -1 17 -9 17
-21 0 -10 8 -25 18 -32 15 -12 12 -13 -26 -14 -24 0 -41 -4 -37 -9 3 -5 1 -12
-5 -16 -12 -8 -13 -25 0 -45 7 -12 12 -12 29 4 20 18 21 18 21 1 0 -11 5 -15
15 -11 10 4 20 -3 27 -19 9 -21 14 -23 26 -12 13 10 15 9 9 -5 -4 -12 -2 -18
7 -18 22 0 27 -44 9 -81 -10 -20 -12 -34 -6 -36 5 -2 8 -15 5 -28 -5 -28 0
-30 29 -15 19 11 29 -3 10 -14 -4 -3 -8 -16 -7 -28 1 -19 6 -22 31 -19 17 1
33 8 36 13 4 6 16 7 27 4 12 -4 26 -1 36 9 10 10 24 14 36 10 19 -6 47 4 72
27 8 7 23 18 33 24 15 8 19 20 17 42 -2 17 5 51 16 75 17 38 17 45 4 65 -13
20 -13 22 1 22 9 0 21 10 28 21 10 20 9 21 -13 16 -13 -3 -30 -2 -38 3 -8 5
-10 10 -5 11 6 0 -6 6 -25 13 -19 7 -35 19 -35 27 0 9 -10 13 -28 12 -25 -2
-26 0 -16 19 8 14 8 23 0 31 -8 8 -11 8 -11 -1 0 -6 -10 -1 -23 11 -13 12 -21
28 -19 35 2 6 -1 13 -7 13 -6 1 -17 2 -23 3 -7 0 -13 14 -13 30 -1 18 -8 34
-20 40 -23 13 -95 88 -95 99 0 11 -42 69 -59 83 -7 6 -13 22 -13 36 0 18 -8
27 -30 36 -15 6 -27 14 -26 19 4 15 -33 74 -42 68 -6 -4 -10 3 -10 14 0 12 -3
21 -8 21 -4 0 -18 20 -32 45 -14 25 -28 45 -32 45 -5 0 -8 7 -8 15 0 18 -28
34 -50 28 -21 -6 -33 11 -35 48 -1 15 -9 34 -18 44 -17 16 -17 19 0 45 10 16
72 84 138 152 66 68 134 139 150 158 17 19 47 49 68 67 20 18 37 34 37 36 0
13 171 190 267 277 62 56 75 101 45 158 -19 37 -31 41 -82 30 -53 -13 -141
-94 -310 -289 -84 -96 -175 -192 -284 -298 -54 -53 -110 -108 -124 -123 -30
-33 -46 -35 -69 -8 -10 11 -23 20 -30 20 -7 0 -13 6 -13 14 0 7 -13 16 -30 20
-28 5 -43 26 -19 26 5 0 7 5 4 10 -4 6 -11 7 -17 4 -7 -4 -8 -2 -4 4 4 6 -11
29 -34 52 -22 22 -40 47 -40 55 0 8 -12 23 -27 32 -15 10 -36 26 -45 36 -10 9
-22 17 -26 17 -4 0 -8 10 -9 21 -2 24 -65 87 -82 81 -6 -2 -11 5 -11 16 0 10
-11 24 -24 30 -13 6 -27 20 -31 32 -4 13 -12 19 -20 16 -9 -3 -12 0 -8 10 3 9
-4 18 -24 24 -15 6 -33 20 -38 33 -6 12 -18 21 -27 21 -10 -1 -14 4 -11 12 3
8 0 14 -6 14 -6 0 -11 7 -11 16 0 9 -11 27 -25 40 -14 13 -25 26 -25 29 0 3
-1 4 -2 3 -8 -6 -48 39 -48 52 0 9 -13 21 -30 27 -16 6 -30 18 -30 27 0 9 -4
16 -10 16 -5 0 -10 6 -10 13 0 7 -9 18 -20 25 -11 7 -20 21 -20 32 0 12 -7 23
-16 27 -8 3 -13 12 -10 19 3 7 1 16 -4 19 -5 3 -7 12 -4 20 4 9 -3 18 -19 24
-13 5 -33 21 -45 35 -11 14 -25 26 -31 26 -6 0 -11 5 -11 11 0 5 -16 17 -35
25 -42 17 -40 17 -59 -2z m18 -43 c3 -4 1 -13 -3 -19 -11 -17 -36 -6 -38 17
-1 14 3 17 18 14 11 -3 21 -8 23 -12z m716 -1535 c0 -3 -4 -8 -10 -11 -5 -3
-10 -1 -10 4 0 6 5 11 10 11 6 0 10 -2 10 -4z"/>
<path d="M355 2877 c-11 -7 -22 -15 -25 -18 -17 -21 -77 -38 -65 -19 3 6 -3
10 -14 10 -25 0 -53 -41 -53 -75 0 -18 -7 -27 -23 -31 -28 -7 -52 -53 -34 -65
12 -7 41 1 80 21 13 7 19 7 19 0 0 -17 72 -11 94 7 12 10 15 11 9 3 -33 -37
-2 -40 63 -5 56 30 64 31 64 6 0 -10 6 -21 14 -24 16 -6 40 16 29 26 -3 4 -1
7 5 7 15 0 15 -13 0 -28 -9 -9 -7 -12 12 -12 13 0 20 -3 17 -6 -12 -12 13 -44
34 -44 11 0 34 8 52 17 18 9 52 18 77 19 25 1 39 0 32 -3 -26 -10 -1 -19 47
-17 42 1 49 -1 46 -16 -4 -20 56 -53 80 -44 8 4 23 0 32 -7 12 -10 17 -11 20
-2 5 14 74 -3 86 -21 5 -8 10 -7 17 4 8 12 11 11 16 -8 5 -18 12 -22 29 -18
12 3 31 -2 44 -10 16 -12 25 -13 35 -4 10 8 15 8 18 0 2 -8 11 -8 32 0 24 9
31 7 42 -7 9 -12 16 -14 21 -8 11 14 69 19 77 7 3 -6 15 -8 26 -5 14 4 20 0
20 -11 0 -9 5 -16 10 -16 6 0 10 4 10 9 0 9 70 -7 123 -28 39 -15 134 -87 147
-111 6 -11 17 -20 25 -20 7 0 17 -9 20 -20 3 -11 13 -20 21 -20 8 0 19 -11 24
-24 7 -19 14 -23 30 -19 12 3 25 1 29 -4 7 -12 98 -55 126 -60 11 -2 47 -5 80
-6 33 -2 71 -8 85 -14 14 -6 30 -7 35 -3 6 4 19 6 29 4 24 -3 61 32 79 76 16
37 8 90 -16 115 -9 8 -41 53 -72 99 -46 70 -62 86 -98 99 -23 8 -49 15 -57 16
-44 1 -81 9 -93 19 -7 6 -22 9 -33 6 -12 -3 -42 4 -67 16 -25 12 -56 23 -69
25 -13 1 -45 12 -73 23 -27 11 -53 20 -57 21 -4 1 -13 4 -20 6 -69 25 -135 45
-150 45 -10 0 -26 4 -36 9 -31 16 -120 28 -137 18 -11 -6 -22 -4 -33 6 -23 20
-59 30 -112 31 -25 1 -50 5 -57 9 -7 4 -23 5 -36 1 -14 -3 -28 -1 -31 4 -7 12
-56 6 -70 -8 -5 -5 -16 -5 -25 0 -9 5 -28 11 -43 15 -16 3 -28 12 -28 21 0 11
-6 13 -20 9 -11 -3 -20 -2 -20 4 0 6 -11 6 -32 0 -22 -6 -34 -6 -36 1 -7 19
-51 11 -63 -12 l-12 -22 -8 23 c-5 13 -13 19 -20 15 -7 -4 -18 1 -25 11 -11
14 -16 15 -28 6 -11 -9 -15 -8 -21 6 -6 17 -7 17 -20 0 -8 -11 -16 -14 -19 -8
-11 18 -79 10 -125 -15 -31 -17 -41 -20 -37 -9 7 19 -3 45 -18 44 -6 0 -20 -6
-31 -12z m255 -222 c-7 -9 -15 -13 -17 -11 -7 7 7 26 19 26 6 0 6 -6 -2 -15z"/>
<path d="M3376 2621 c-3 -4 -20 -9 -38 -10 -53 -3 -71 -7 -110 -25 -21 -9 -43
-16 -51 -16 -15 0 -90 -47 -129 -81 -22 -20 -28 -34 -31 -77 -2 -47 0 -55 29
-83 17 -16 44 -32 60 -36 49 -10 173 -7 196 4 32 16 122 48 128 46 3 -1 10 3
16 8 35 29 167 52 279 49 22 -1 94 -3 160 -5 66 -2 139 -6 162 -9 24 -3 82 -8
130 -10 49 -3 88 -6 88 -6 0 -1 11 -3 25 -4 14 -2 46 -6 73 -11 34 -5 52 -4
63 6 13 10 20 10 44 -5 66 -38 312 -22 296 20 -3 7 -1 14 5 14 6 0 8 4 5 9 -3
4 -18 6 -32 3 -19 -3 -25 -1 -20 7 4 6 11 9 16 6 5 -3 11 -1 15 5 6 9 -8 14
-28 11 -5 -1 -6 3 -2 8 3 6 12 8 20 4 9 -3 15 1 15 10 0 13 10 15 54 12 46 -3
55 -1 59 15 4 14 -2 20 -24 25 -16 4 -27 11 -23 16 3 5 -3 12 -13 16 -10 4
-24 13 -31 20 -16 16 -68 17 -77 3 -5 -8 -11 -8 -19 -1 -12 11 -79 7 -99 -6
-6 -4 -3 -11 8 -20 11 -7 14 -13 9 -13 -6 0 -14 4 -19 9 -6 5 -37 12 -69 15
-32 3 -64 10 -70 15 -15 13 -95 4 -114 -11 -13 -11 -15 -10 -9 5 3 9 2 18 -3
18 -6 1 -16 2 -22 3 -7 1 -25 -4 -40 -11 -15 -7 -38 -12 -52 -11 -23 2 -27 11
-5 14 22 3 23 6 4 13 -11 4 -34 4 -52 -1 -17 -5 -47 -6 -67 -4 -20 2 -38 1
-41 -3 -2 -4 -46 -7 -97 -6 -112 3 -109 2 -106 16 2 8 -26 13 -87 14 -49 2
-90 3 -90 4 0 2 -52 4 -115 6 -63 1 -127 8 -142 14 -15 5 -30 7 -32 2z m834
-161 c0 -5 7 -10 15 -10 20 0 19 -14 -2 -31 -9 -8 -14 -9 -10 -3 4 7 0 17 -8
24 -17 14 -20 30 -5 30 6 0 10 -4 10 -10z m353 -43 c3 -8 1 -20 -4 -28 -9 -15
-9 -15 -13 19 -3 24 9 30 17 9z"/>
<path d="M2565 1995 c-56 -13 -147 -65 -141 -80 2 -5 -1 -18 -6 -27 -6 -13 -5
-18 4 -18 26 0 -17 -20 -44 -20 -29 0 -45 -15 -28 -25 14 -9 12 -21 -6 -40 -9
-8 -13 -22 -10 -30 3 -8 0 -17 -5 -21 -6 -3 -9 -18 -6 -32 3 -14 -1 -45 -8
-68 -11 -36 -10 -44 2 -48 11 -5 12 -10 2 -27 -8 -16 -8 -23 0 -29 7 -3 9 -13
7 -21 -3 -8 -2 -36 2 -64 5 -37 12 -50 24 -50 24 0 42 -21 34 -40 -5 -14 -9
-15 -21 -5 -17 14 -39 4 -31 -15 3 -8 -2 -19 -10 -26 -10 -8 -12 -15 -5 -22 7
-7 5 -15 -7 -23 -9 -8 -12 -14 -6 -14 8 0 12 -22 13 -60 1 -62 -29 -161 -56
-188 -11 -11 -11 -17 -1 -29 9 -12 9 -16 -3 -23 -8 -5 -14 -13 -14 -17 -1 -4
-6 -18 -13 -29 -6 -12 -9 -24 -5 -27 3 -4 1 -12 -4 -19 -6 -7 -10 -25 -9 -40
1 -16 -2 -28 -6 -28 -15 0 -60 -54 -64 -78 -3 -14 -7 -29 -10 -33 -2 -4 0 -10
5 -13 8 -5 8 -27 1 -46 -3 -7 -1 -71 3 -92 3 -16 76 -97 78 -87 6 33 9 42 15
47 4 4 5 -5 2 -20 -6 -30 6 -38 53 -38 16 0 29 -5 29 -11 0 -6 8 -9 18 -7 19
4 23 26 9 45 -7 10 -4 13 12 13 22 0 28 14 11 25 -6 4 -8 11 -4 16 3 5 10 7
15 3 6 -3 15 8 22 25 6 17 15 31 19 31 4 0 5 6 2 14 -3 8 0 17 5 21 6 3 9 10
6 14 -2 5 7 6 20 3 27 -5 35 15 11 24 -8 3 -12 12 -9 20 3 8 0 14 -7 14 -6 0
-8 5 -5 10 3 6 3 16 -1 22 -14 22 -11 48 4 48 8 0 12 6 8 15 -3 8 -1 14 3 12
20 -5 47 43 46 80 -1 21 4 43 12 51 12 12 11 16 -7 29 l-21 15 21 15 c14 10
19 21 15 34 -4 10 -2 19 3 19 5 0 9 14 10 30 0 20 -3 28 -11 24 -7 -3 -4 1 6
9 13 11 16 22 12 40 -4 14 -1 36 6 49 7 12 12 27 11 31 -1 4 4 15 13 23 20 20
19 41 -2 53 -17 9 -17 11 2 25 11 8 15 16 8 16 -17 0 -4 30 13 30 16 0 19 16
4 25 -6 4 -3 17 10 35 11 15 20 34 20 40 0 7 12 23 28 36 15 13 23 24 19 24
-5 0 0 14 10 30 9 17 21 30 26 30 5 0 7 10 6 23 -2 12 3 33 11 47 8 14 16 32
17 40 1 8 6 34 11 56 12 58 5 144 -13 163 -9 9 -26 28 -38 43 -35 43 -82 58
-142 43z"/>
</g>
</svg>
